<svg width="77" height="16" viewBox="0 0 77 16" fill="none" xmlns="http://www.w3.org/2000/svg">
<path fill-rule="evenodd" clip-rule="evenodd" d="M18.6817 6.11577H2.73025C2.44333 6.11577 2.21074 6.34836 2.21074 6.63528V13.1115C2.21074 13.3984 2.44333 13.631 2.73025 13.631H18.6817C18.9686 13.631 19.2012 13.3984 19.2012 13.1115V6.63528C19.2012 6.34836 18.9686 6.11577 18.6817 6.11577ZM2.73025 4.31519C1.4489 4.31519 0.410156 5.35393 0.410156 6.63528V13.1115C0.410156 14.3928 1.4489 15.4316 2.73025 15.4316H18.6817C19.963 15.4316 21.0017 14.3928 21.0017 13.1115V6.63528C21.0017 5.35393 19.963 4.31519 18.6817 4.31519H2.73025Z" fill="#0688FF"/>
<path fill-rule="evenodd" clip-rule="evenodd" d="M15.5062 1.80058H5.90698C5.62006 1.80058 5.38747 2.03318 5.38747 2.3201V4.33321H16.0257V2.3201C16.0257 2.03318 15.7931 1.80058 15.5062 1.80058ZM5.90698 0C4.62563 0 3.58688 1.03874 3.58688 2.3201V6.13379H17.8263V2.3201C17.8263 1.03874 16.7875 0 15.5062 0H5.90698Z" fill="#0688FF"/>
<path d="M36.568 4.166H31.878V6.952C32.074 6.69067 32.3634 6.47133 32.746 6.294C33.138 6.11667 33.5534 6.028 33.992 6.028C34.776 6.028 35.4107 6.196 35.896 6.532C36.3907 6.868 36.7407 7.29267 36.946 7.806C37.1607 8.31933 37.268 8.86067 37.268 9.43C37.268 10.1207 37.1327 10.7367 36.862 11.278C36.6007 11.81 36.204 12.23 35.672 12.538C35.1494 12.846 34.5054 13 33.74 13C32.7227 13 31.906 12.748 31.29 12.244C30.674 11.74 30.3054 11.0727 30.184 10.242H31.738C31.8407 10.6807 32.0694 11.0307 32.424 11.292C32.7787 11.544 33.222 11.67 33.754 11.67C34.4167 11.67 34.9114 11.4693 35.238 11.068C35.574 10.6667 35.742 10.1347 35.742 9.472C35.742 8.8 35.574 8.28667 35.238 7.932C34.902 7.568 34.4074 7.386 33.754 7.386C33.2967 7.386 32.9094 7.50267 32.592 7.736C32.284 7.96 32.06 8.268 31.92 8.66H30.408V2.766H36.568V4.166ZM48.2642 8.002C48.7868 8.09533 49.2302 8.37067 49.5942 8.828C49.9582 9.28533 50.1402 9.80333 50.1402 10.382C50.1402 10.8767 50.0095 11.3247 49.7482 11.726C49.4962 12.118 49.1275 12.4307 48.6422 12.664C48.1568 12.888 47.5922 13 46.9482 13H43.0562V3.27H46.7662C47.4288 3.27 47.9982 3.382 48.4742 3.606C48.9502 3.83 49.3095 4.13333 49.5522 4.516C49.7948 4.88933 49.9162 5.30933 49.9162 5.776C49.9162 6.336 49.7668 6.80267 49.4682 7.176C49.1695 7.54933 48.7682 7.82467 48.2642 8.002ZM44.6522 7.358H46.6262C47.1488 7.358 47.5548 7.24133 47.8442 7.008C48.1428 6.76533 48.2922 6.42 48.2922 5.972C48.2922 5.53333 48.1428 5.19267 47.8442 4.95C47.5548 4.698 47.1488 4.572 46.6262 4.572H44.6522V7.358ZM46.8082 11.698C47.3495 11.698 47.7742 11.5673 48.0822 11.306C48.3902 11.0447 48.5442 10.6807 48.5442 10.214C48.5442 9.738 48.3808 9.36 48.0542 9.08C47.7275 8.8 47.2935 8.66 46.7522 8.66H44.6522V11.698H46.8082ZM59.0845 8.954C59.0845 9.24333 59.0659 9.50467 59.0285 9.738H53.1345C53.1812 10.354 53.4099 10.8487 53.8205 11.222C54.2312 11.5953 54.7352 11.782 55.3325 11.782C56.1912 11.782 56.7979 11.4227 57.1525 10.704H58.8745C58.6412 11.4133 58.2165 11.9967 57.6005 12.454C56.9939 12.902 56.2379 13.126 55.3325 13.126C54.5952 13.126 53.9325 12.9627 53.3445 12.636C52.7659 12.3 52.3085 11.8333 51.9725 11.236C51.6459 10.6293 51.4825 9.92933 51.4825 9.136C51.4825 8.34267 51.6412 7.64733 51.9585 7.05C52.2852 6.44333 52.7379 5.97667 53.3165 5.65C53.9045 5.32333 54.5765 5.16 55.3325 5.16C56.0605 5.16 56.7092 5.31867 57.2785 5.636C57.8479 5.95333 58.2912 6.40133 58.6085 6.98C58.9259 7.54933 59.0845 8.20733 59.0845 8.954ZM57.4185 8.45C57.4092 7.862 57.1992 7.39067 56.7885 7.036C56.3779 6.68133 55.8692 6.504 55.2625 6.504C54.7119 6.504 54.2405 6.68133 53.8485 7.036C53.4565 7.38133 53.2232 7.85267 53.1485 8.45H57.4185ZM60.2632 9.108C60.2632 8.33333 60.4218 7.64733 60.7392 7.05C61.0658 6.45267 61.5045 5.99067 62.0552 5.664C62.6152 5.328 63.2358 5.16 63.9172 5.16C64.4212 5.16 64.9158 5.272 65.4012 5.496C65.8958 5.71067 66.2878 6 66.5772 6.364V2.64H68.1872V13H66.5772V11.838C66.3158 12.2113 65.9518 12.5193 65.4852 12.762C65.0278 13.0047 64.5005 13.126 63.9032 13.126C63.2312 13.126 62.6152 12.958 62.0552 12.622C61.5045 12.2767 61.0658 11.8007 60.7392 11.194C60.4218 10.578 60.2632 9.88267 60.2632 9.108ZM66.5772 9.136C66.5772 8.604 66.4652 8.142 66.2412 7.75C66.0265 7.358 65.7418 7.05933 65.3872 6.854C65.0325 6.64867 64.6498 6.546 64.2392 6.546C63.8285 6.546 63.4458 6.64867 63.0912 6.854C62.7365 7.05 62.4472 7.344 62.2232 7.736C62.0085 8.11867 61.9012 8.576 61.9012 9.108C61.9012 9.64 62.0085 10.1067 62.2232 10.508C62.4472 10.9093 62.7365 11.2173 63.0912 11.432C63.4552 11.6373 63.8378 11.74 64.2392 11.74C64.6498 11.74 65.0325 11.6373 65.3872 11.432C65.7418 11.2267 66.0265 10.928 66.2412 10.536C66.4652 10.1347 66.5772 9.668 66.5772 9.136ZM73.2234 13.126C72.6168 13.126 72.0708 13.0187 71.5854 12.804C71.1094 12.58 70.7314 12.2813 70.4514 11.908C70.1714 11.5253 70.0221 11.1007 70.0034 10.634H71.6554C71.6834 10.9607 71.8374 11.236 72.1174 11.46C72.4068 11.6747 72.7661 11.782 73.1954 11.782C73.6434 11.782 73.9888 11.698 74.2314 11.53C74.4834 11.3527 74.6094 11.1287 74.6094 10.858C74.6094 10.5687 74.4694 10.354 74.1894 10.214C73.9188 10.074 73.4848 9.92 72.8874 9.752C72.3088 9.59333 71.8374 9.43933 71.4734 9.29C71.1094 9.14067 70.7921 8.912 70.5214 8.604C70.2601 8.296 70.1294 7.89 70.1294 7.386C70.1294 6.97533 70.2508 6.602 70.4934 6.266C70.7361 5.92067 71.0814 5.65 71.5294 5.454C71.9868 5.258 72.5094 5.16 73.0974 5.16C73.9748 5.16 74.6794 5.384 75.2114 5.832C75.7528 6.27067 76.0421 6.87267 76.0794 7.638H74.4834C74.4554 7.29267 74.3154 7.01733 74.0634 6.812C73.8114 6.60667 73.4708 6.504 73.0414 6.504C72.6214 6.504 72.2994 6.58333 72.0754 6.742C71.8514 6.90067 71.7394 7.11067 71.7394 7.372C71.7394 7.57733 71.8141 7.75 71.9634 7.89C72.1128 8.03 72.2948 8.142 72.5094 8.226C72.7241 8.30067 73.0414 8.39867 73.4614 8.52C74.0214 8.66933 74.4788 8.82333 74.8334 8.982C75.1974 9.13133 75.5101 9.35533 75.7714 9.654C76.0328 9.95267 76.1681 10.3493 76.1774 10.844C76.1774 11.2827 76.0561 11.6747 75.8134 12.02C75.5708 12.3653 75.2254 12.636 74.7774 12.832C74.3388 13.028 73.8208 13.126 73.2234 13.126Z" fill="#4D4D52"/>
</svg>
